<?xml version="1.0" encoding="UTF-8"?>
<!DOCTYPE svg PUBLIC "-//W3C//DTD SVG 1.1//EN" "http://www.w3.org/Graphics/SVG/1.1/DTD/svg11.dtd">
<!-- Creator: CorelDRAW 2018 -->
<svg xmlns="http://www.w3.org/2000/svg" xml:space="preserve" width="1.3in" height="1.6in" version="1.1" style="shape-rendering:geometricPrecision; text-rendering:geometricPrecision; image-rendering:optimizeQuality; fill-rule:evenodd; clip-rule:evenodd"
viewBox="0 0 1300 1600"
 xmlns:xlink="http://www.w3.org/1999/xlink">
 <defs>
  <style type="text/css">
   <![CDATA[
    .fil0 {fill:white}
   ]]>
  </style>
 </defs>
 <g id="Layer_x0020_1">
  <metadata id="CorelCorpID_0Corel-Layer"/>
  <g id="_937234528">
   <ellipse class="fil0" cx="1177.6" cy="161.78" rx="110.89" ry="110.81"/>
   <path class="fil0" d="M96.59 948.93l0 558.85c0,37.57 1.16,40.77 29.76,41.24l242.74 -0.04 0.03 -414.48c-91.51,-55.34 -179.98,-126.05 -272.53,-185.57z"/>
   <path class="fil0" d="M1160.75 346.56c-144.72,209.95 -300.95,456.3 -445.68,666.25l96.37 130.8c58.06,-38.28 231.58,-159.16 303.24,-205.89 44.27,-28.87 95.01,-55.39 93,-92.35 6.66,-160.33 -2.34,-328.89 0.92,-488.26 0.82,-33.59 -35.51,-29.35 -47.85,-10.55z"/>
   <path class="fil0" d="M645.07 1254.12c2.57,1.71 126.83,-84.65 126.83,-84.65l-598 -788.45c-10.65,-14.06 -48.36,-69.33 -69.35,-40.01 -4.95,9.05 -5.13,14.85 -5.07,23.08l-2.93 440.81c6,48.59 35.45,98.91 95.08,142.81 133.8,88.17 450.86,304.7 453.44,306.41zm-15.74 -143.38c17.62,2.33 29.84,16.98 27.29,32.7 -2.56,15.72 -18.91,26.58 -36.53,24.25 -17.62,-2.33 -29.83,-16.97 -27.28,-32.7 2.55,-15.72 18.91,-26.58 36.52,-24.25z"/>
   <ellipse class="fil0" cx="122.39" cy="173.84" rx="110.89" ry="110.81"/>
   <path class="fil0" d="M1208.59 948.93l0 558.85c0,37.57 -1.17,40.77 -29.76,41.24l-242.74 -0.04 -0.03 -414.48c91.51,-55.34 179.98,-126.05 272.53,-185.57z"/>
  </g>
 </g>
</svg>
